<svg width="1653" height="993" xmlns="http://www.w3.org/2000/svg" xmlns:xlink="http://www.w3.org/1999/xlink" overflow="hidden"><defs><clipPath id="clip0"><rect x="1730" y="326" width="1653" height="993"/></clipPath><clipPath id="clip1"><rect x="1731" y="327" width="1650" height="990"/></clipPath><clipPath id="clip2"><rect x="1731" y="327" width="1650" height="990"/></clipPath><clipPath id="clip3"><rect x="1840" y="377" width="1494" height="732"/></clipPath><clipPath id="clip4"><rect x="1840" y="377" width="1494" height="732"/></clipPath><clipPath id="clip5"><rect x="1731" y="327" width="1650" height="990"/></clipPath><clipPath id="clip6"><rect x="1731" y="327" width="1650" height="990"/></clipPath><clipPath id="clip7"><rect x="1731" y="327" width="1650" height="990"/></clipPath><clipPath id="clip8"><rect x="1731" y="327" width="1650" height="990"/></clipPath><clipPath id="clip9"><rect x="1731" y="327" width="1650" height="990"/></clipPath><clipPath id="clip10"><rect x="1731" y="327" width="1650" height="990"/></clipPath><clipPath id="clip11"><rect x="1731" y="327" width="1650" height="990"/></clipPath><clipPath id="clip12"><rect x="1731" y="327" width="1650" height="990"/></clipPath><clipPath id="clip13"><rect x="1731" y="327" width="1650" height="990"/></clipPath><clipPath id="clip14"><rect x="1731" y="327" width="1650" height="990"/></clipPath><clipPath id="clip15"><rect x="1731" y="327" width="1650" height="990"/></clipPath><clipPath id="clip16"><rect x="1731" y="327" width="1650" height="990"/></clipPath><clipPath id="clip17"><rect x="1731" y="327" width="1650" height="990"/></clipPath><clipPath id="clip18"><rect x="1731" y="327" width="1650" height="990"/></clipPath><clipPath id="clip19"><rect x="1731" y="327" width="1650" height="990"/></clipPath><clipPath id="clip20"><rect x="1731" y="327" width="1650" height="990"/></clipPath><clipPath id="clip21"><rect x="1731" y="327" width="1650" height="990"/></clipPath><clipPath id="clip22"><rect x="1731" y="327" width="1650" height="990"/></clipPath><clipPath id="clip23"><rect x="1731" y="327" width="1650" height="990"/></clipPath><clipPath id="clip24"><rect x="1731" y="327" width="1650" height="990"/></clipPath><clipPath id="clip25"><rect x="1731" y="327" width="1650" height="990"/></clipPath><clipPath id="clip26"><rect x="1731" y="327" width="1650" height="990"/></clipPath></defs><g clip-path="url(#clip0)" transform="translate(-1730 -326)"><rect x="1731" y="327" width="1650" height="990" fill="#FFFFFF"/><g clip-path="url(#clip1)"><path d="M1840.5 1033.53 3330.5 1033.53M1840.5 960.532 3330.5 960.532M1840.5 887.529 3330.5 887.529M1840.5 814.527 3330.5 814.527M1840.5 741.525 3330.5 741.525M1840.5 669.522 3330.5 669.522M1840.5 596.52 3330.5 596.52M1840.5 523.517 3330.5 523.517M1840.5 450.515 3330.5 450.515M1840.5 377.5 3330.5 377.5" stroke="#D9D9D9" stroke-width="3.4375" stroke-linejoin="round" stroke-miterlimit="10" fill="none"/></g><g clip-path="url(#clip2)"><path d="M1840.5 1106.5 3330.5 1106.5" stroke="#D9D9D9" stroke-width="3.4375" stroke-linejoin="round" stroke-miterlimit="10" fill="none" fill-rule="evenodd"/></g><g clip-path="url(#clip3)"><path d="M1947 851.028 2160.07 888.029 2373.08 924 2586.08 815 2799.09 888.029 3011.1 924 3224 924" stroke="#4472C4" stroke-width="10.3125" stroke-linecap="round" stroke-linejoin="round" stroke-miterlimit="10" fill="none"/></g><g clip-path="url(#clip4)"><path d="M1947 450.015 2160.07 851 2373.08 414 2586.08 742.024 2799.09 596.02 3011.1 560.018 3224 742.024" stroke="#ED7D31" stroke-width="10.3125" stroke-linecap="round" stroke-linejoin="round" stroke-miterlimit="10" fill="none"/></g><g clip-path="url(#clip5)"><text fill="#595959" font-family="Calibri,Calibri_MSFontService,sans-serif" font-weight="400" font-size="41" transform="matrix(1 0 0 1 1781.82 1118)">0</text></g><g clip-path="url(#clip6)"><text fill="#595959" font-family="Calibri,Calibri_MSFontService,sans-serif" font-weight="400" font-size="41" transform="matrix(1 0 0 1 1781.82 1045)">2</text></g><g clip-path="url(#clip7)"><text fill="#595959" font-family="Calibri,Calibri_MSFontService,sans-serif" font-weight="400" font-size="41" transform="matrix(1 0 0 1 1781.82 972)">4</text></g><g clip-path="url(#clip8)"><text fill="#595959" font-family="Calibri,Calibri_MSFontService,sans-serif" font-weight="400" font-size="41" transform="matrix(1 0 0 1 1781.82 899)">6</text></g><g clip-path="url(#clip9)"><text fill="#595959" font-family="Calibri,Calibri_MSFontService,sans-serif" font-weight="400" font-size="41" transform="matrix(1 0 0 1 1781.82 826)">8</text></g><g clip-path="url(#clip10)"><text fill="#595959" font-family="Calibri,Calibri_MSFontService,sans-serif" font-weight="400" font-size="41" transform="matrix(1 0 0 1 1760.92 753)">10</text></g><g clip-path="url(#clip11)"><text fill="#595959" font-family="Calibri,Calibri_MSFontService,sans-serif" font-weight="400" font-size="41" transform="matrix(1 0 0 1 1760.92 681)">12</text></g><g clip-path="url(#clip12)"><text fill="#595959" font-family="Calibri,Calibri_MSFontService,sans-serif" font-weight="400" font-size="41" transform="matrix(1 0 0 1 1760.92 608)">14</text></g><g clip-path="url(#clip13)"><text fill="#595959" font-family="Calibri,Calibri_MSFontService,sans-serif" font-weight="400" font-size="41" transform="matrix(1 0 0 1 1760.92 535)">16</text></g><g clip-path="url(#clip14)"><text fill="#595959" font-family="Calibri,Calibri_MSFontService,sans-serif" font-weight="400" font-size="41" transform="matrix(1 0 0 1 1760.92 462)">18</text></g><g clip-path="url(#clip15)"><text fill="#595959" font-family="Calibri,Calibri_MSFontService,sans-serif" font-weight="400" font-size="41" transform="matrix(1 0 0 1 1760.92 389)">20</text></g><g clip-path="url(#clip16)"><text fill="#595959" font-family="Calibri,Calibri_MSFontService,sans-serif" font-weight="400" font-size="41" transform="matrix(1 0 0 1 1936.94 1171)">1</text></g><g clip-path="url(#clip17)"><text fill="#595959" font-family="Calibri,Calibri_MSFontService,sans-serif" font-weight="400" font-size="41" transform="matrix(1 0 0 1 2149.76 1171)">2</text></g><g clip-path="url(#clip18)"><text fill="#595959" font-family="Calibri,Calibri_MSFontService,sans-serif" font-weight="400" font-size="41" transform="matrix(1 0 0 1 2362.58 1171)">3</text></g><g clip-path="url(#clip19)"><text fill="#595959" font-family="Calibri,Calibri_MSFontService,sans-serif" font-weight="400" font-size="41" transform="matrix(1 0 0 1 2575.4 1171)">4</text></g><g clip-path="url(#clip20)"><text fill="#595959" font-family="Calibri,Calibri_MSFontService,sans-serif" font-weight="400" font-size="41" transform="matrix(1 0 0 1 2788.21 1171)">5</text></g><g clip-path="url(#clip21)"><text fill="#595959" font-family="Calibri,Calibri_MSFontService,sans-serif" font-weight="400" font-size="41" transform="matrix(1 0 0 1 3001.03 1171)">6</text></g><g clip-path="url(#clip22)"><text fill="#595959" font-family="Calibri,Calibri_MSFontService,sans-serif" font-weight="400" font-size="41" transform="matrix(1 0 0 1 3213.85 1171)">7</text></g><g clip-path="url(#clip23)"><path d="M2365 1251 2453 1251" stroke="#4472C4" stroke-width="10.3125" stroke-linecap="round" stroke-linejoin="round" stroke-miterlimit="10" fill="none" fill-rule="evenodd"/></g><g clip-path="url(#clip24)"><text fill="#595959" font-family="Yu Gothic,Yu Gothic_MSFontService,sans-serif" font-weight="400" font-size="41" transform="matrix(1 0 0 1 2462.51 1263)">最低</text></g><g clip-path="url(#clip25)"><path d="M2583 1251 2671 1251" stroke="#ED7D31" stroke-width="10.3125" stroke-linecap="round" stroke-linejoin="round" stroke-miterlimit="10" fill="none" fill-rule="evenodd"/></g><g clip-path="url(#clip26)"><text fill="#595959" font-family="Yu Gothic,Yu Gothic_MSFontService,sans-serif" font-weight="400" font-size="41" transform="matrix(1 0 0 1 2680.68 1263)">最高</text></g><rect x="1731.5" y="327.5" width="1650" height="990" stroke="#D9D9D9" stroke-width="3.4375" stroke-linejoin="round" stroke-miterlimit="10" fill="none"/></g></svg>